<svg xmlns="http://www.w3.org/2000/svg" width="100" height="103" viewBox="0 0 191 197" fill="none"><path d="M95.46 141.92C134.374 141.92 165.92 110.374 165.92 71.46C165.92 32.546 134.374 1 95.46 1C56.546 1 25 32.546 25 71.46C25 110.374 56.546 141.92 95.46 141.92Z" stroke="#333" stroke-width="2" stroke-miterlimit="10"></path><g opacity="0.7"><path d="M95.46 141.92C134.374 141.92 165.92 110.374 165.92 71.46C165.92 32.546 134.374 1 95.46 1C56.546 1 25 32.546 25 71.46C25 110.374 56.546 141.92 95.46 141.92Z" stroke="#333" stroke-width="2" stroke-miterlimit="10"></path></g><path d="M95.46 118.439C127.89 118.439 154.179 92.1494 154.179 59.7195C154.179 27.2896 127.89 1 95.46 1C63.0301 1 36.7405 27.2896 36.7405 59.7195C36.7405 92.1494 63.0301 118.439 95.46 118.439Z" stroke="#333" stroke-width="2" stroke-miterlimit="10"></path><g opacity="0.7"><path d="M95.46 118.439C127.89 118.439 154.179 92.1494 154.179 59.7195C154.179 27.2896 127.89 1 95.46 1C63.0301 1 36.7405 27.2896 36.7405 59.7195C36.7405 92.1494 63.0301 118.439 95.46 118.439Z" stroke="#333" stroke-width="2" stroke-miterlimit="10"></path></g><path d="M95.46 118.439C121.406 118.439 142.439 97.4058 142.439 71.46C142.439 45.5142 121.406 24.481 95.46 24.481C69.5142 24.481 48.481 45.5142 48.481 71.46C48.481 97.4058 69.5142 118.439 95.46 118.439Z" stroke="#333" stroke-width="2" stroke-miterlimit="10"></path><g opacity="0.7"><path d="M95.46 118.439C121.406 118.439 142.439 97.4058 142.439 71.46C142.439 45.5142 121.406 24.481 95.46 24.481C69.5142 24.481 48.481 45.5142 48.481 71.46C48.481 97.4058 69.5142 118.439 95.46 118.439Z" stroke="#333" stroke-width="2" stroke-miterlimit="10"></path></g><path d="M95.4599 118.439C117.078 118.439 134.603 100.914 134.603 79.2956C134.603 57.6772 117.078 40.1521 95.4599 40.1521C73.8415 40.1521 56.3164 57.6772 56.3164 79.2956C56.3164 100.914 73.8415 118.439 95.4599 118.439Z" stroke="#333" stroke-width="2" stroke-miterlimit="10"></path><g opacity="0.7"><path d="M95.4599 118.439C117.078 118.439 134.603 100.914 134.603 79.2956C134.603 57.6772 117.078 40.1521 95.4599 40.1521C73.8415 40.1521 56.3164 57.6772 56.3164 79.2956C56.3164 100.914 73.8415 118.439 95.4599 118.439Z" stroke="#333" stroke-width="2" stroke-miterlimit="10"></path></g><g clip-path="url(#clip0_36_301)"><path d="M0 185.84C0 179.59 4.91 175 11.59 175C18.27 175 23.18 179.59 23.18 185.84C23.18 192.09 18.27 196.68 11.59 196.68C4.91 196.68 0 192.1 0 185.84ZM17.22 185.84C17.22 182.24 14.75 179.88 11.59 179.88C8.43 179.88 5.96 182.23 5.96 185.84C5.96 189.45 8.43 191.8 11.59 191.8C14.75 191.8 17.22 189.45 17.22 185.84Z" fill="#333"></path><path d="M63.76 192.22H54.94L53.3 196.27H47.28L56.49 175.42H62.3L71.53 196.27H65.39L63.75 192.22H63.76ZM62.03 187.87L59.35 181.2L56.67 187.87H62.03Z" fill="#333"></path><path d="M95.5601 194.39L97.5001 190.04C99.3501 191.26 101.97 192.1 104.38 192.1C106.79 192.1 107.78 191.41 107.78 190.4C107.78 187.09 95.9301 189.51 95.9301 181.76C95.9301 178.04 98.9701 175 105.16 175C107.87 175 110.67 175.63 112.73 176.82L110.91 181.2C108.91 180.13 106.95 179.59 105.13 179.59C102.66 179.59 101.76 180.42 101.76 181.47C101.76 184.66 113.58 182.27 113.58 189.96C113.58 193.59 110.54 196.69 104.35 196.69C100.92 196.69 97.5301 195.77 95.5601 194.4V194.39Z" fill="#333"></path><path d="M140.11 175.42H146.01V196.27H140.11V175.42Z" fill="#333"></path><path d="M172.57 194.39L174.51 190.04C176.36 191.26 178.98 192.1 181.39 192.1C183.8 192.1 184.79 191.41 184.79 190.4C184.79 187.09 172.94 189.51 172.94 181.76C172.94 178.04 175.98 175 182.17 175C184.88 175 187.68 175.63 189.74 176.82L187.92 181.2C185.92 180.13 183.96 179.59 182.14 179.59C179.67 179.59 178.77 180.42 178.77 181.47C178.77 184.66 190.59 182.27 190.59 189.96C190.59 193.59 187.55 196.69 181.36 196.69C177.93 196.69 174.54 195.77 172.57 194.4V194.39Z" fill="#333"></path></g><defs><clipPath id="clip0_36_301"><rect width="190.59" height="21.68" fill="#333" transform="translate(0 175)"></rect></clipPath></defs></svg>