<svg width = "100px" height = "103px" xmlns="http://www.w3.org/2000/svg" id="Layer_2" viewBox="0 0 190.59 21.68"><defs><style>.cls-1{fill:#10171a;}</style></defs><g id="Layer_1-2"><g><path class="cls-1" d="m0,10.84C0,4.59,4.91,0,11.59,0s11.59,4.59,11.59,10.84-4.91,10.84-11.59,10.84S0,17.1,0,10.84Zm17.22,0c0-3.6-2.47-5.96-5.63-5.96s-5.63,2.35-5.63,5.96,2.47,5.96,5.63,5.96,5.63-2.35,5.63-5.96Z"></path><path class="cls-1" d="m63.76,17.22h-8.82l-1.64,4.05h-6.02L56.49.42h5.81l9.23,20.85h-6.14l-1.64-4.05Zm-1.73-4.35l-2.68-6.67-2.68,6.67h5.36Z"></path><path class="cls-1" d="m95.56,19.39l1.94-4.35c1.85,1.22,4.47,2.06,6.88,2.06s3.4-.69,3.4-1.7c0-3.31-11.85-.89-11.85-8.64,0-3.72,3.04-6.76,9.23-6.76,2.71,0,5.51.63,7.57,1.82l-1.82,4.38c-2-1.07-3.96-1.61-5.78-1.61-2.47,0-3.37.83-3.37,1.88,0,3.19,11.82.8,11.82,8.49,0,3.63-3.04,6.73-9.23,6.73-3.43,0-6.82-.92-8.79-2.29Z"></path><path class="cls-1" d="m140.11.42h5.9v20.85h-5.9V.42Z"></path><path class="cls-1" d="m172.57,19.39l1.94-4.35c1.85,1.22,4.47,2.06,6.88,2.06s3.4-.69,3.4-1.7c0-3.31-11.85-.89-11.85-8.64,0-3.72,3.04-6.76,9.23-6.76,2.71,0,5.51.63,7.57,1.82l-1.82,4.38c-2-1.07-3.96-1.61-5.78-1.61-2.47,0-3.37.83-3.37,1.88,0,3.19,11.82.8,11.82,8.49,0,3.63-3.04,6.73-9.23,6.73-3.43,0-6.82-.92-8.79-2.29Z"></path></g></g></svg>